solid OpenSCAD_Model
  facet normal 0.416398 0.281029 0.864659
    outer loop
      vertex 15 15 2.5
      vertex 0.945713 0 14.1434
      vertex 2.64983 0 13.3228
    endloop
  endfacet
  facet normal 0.65907 0 0.752082
    outer loop
      vertex 2.64983 0 13.3228
      vertex 15 -15 2.5
      vertex 15 15 2.5
    endloop
  endfacet
  facet normal 0.65907 0 0.752082
    outer loop
      vertex 15 -15 2.5
      vertex 2.64983 0 13.3228
      vertex 2.64983 -15 13.3228
    endloop
  endfacet
  facet normal 0 0.613178 0.789945
    outer loop
      vertex 15 15 2.5
      vertex -0.945713 0 14.1434
      vertex 0.945713 0 14.1434
    endloop
  endfacet
  facet normal 0 0.613178 0.789945
    outer loop
      vertex -0.945713 0 14.1434
      vertex 15 15 2.5
      vertex -15 15 2.5
    endloop
  endfacet
  facet normal 0 -1 0
    outer loop
      vertex -2.64983 -15 13.3228
      vertex -0.945713 -15 11.6434
      vertex 2.64983 -15 13.3228
    endloop
  endfacet
  facet normal 0 -1 0
    outer loop
      vertex -2.64983 -15 13.3228
      vertex -2.64983 -15 10.8228
      vertex -0.945713 -15 11.6434
    endloop
  endfacet
  facet normal 0 -1 -0
    outer loop
      vertex -2.64983 -15 13.3228
      vertex -3.82912 -15 9.34401
      vertex -2.64983 -15 10.8228
    endloop
  endfacet
  facet normal 0 -1 -0
    outer loop
      vertex -2.64983 -15 4.17722
      vertex -15 -15 -2.5
      vertex -0.945713 -15 3.35656
    endloop
  endfacet
  facet normal 0 -1 0
    outer loop
      vertex -15 -15 -2.5
      vertex -2.64983 -15 4.17722
      vertex -15 -15 2.5
    endloop
  endfacet
  facet normal 0 -1 -0
    outer loop
      vertex -3.82912 -15 5.65599
      vertex -15 -15 2.5
      vertex -2.64983 -15 4.17722
    endloop
  endfacet
  facet normal 0 -1 -0
    outer loop
      vertex -4.25 -15 7.5
      vertex -15 -15 2.5
      vertex -3.82912 -15 5.65599
    endloop
  endfacet
  facet normal 0 -1 0
    outer loop
      vertex -3.82912 -15 9.34401
      vertex -15 -15 2.5
      vertex -4.25 -15 7.5
    endloop
  endfacet
  facet normal 0 -1 0
    outer loop
      vertex -15 -15 2.5
      vertex -3.82912 -15 9.34401
      vertex -2.64983 -15 13.3228
    endloop
  endfacet
  facet normal 0 -1 0
    outer loop
      vertex 0.945713 -15 11.6434
      vertex 2.64983 -15 13.3228
      vertex -0.945713 -15 11.6434
    endloop
  endfacet
  facet normal 0 -1 0
    outer loop
      vertex 2.64983 -15 10.8228
      vertex 2.64983 -15 13.3228
      vertex 0.945713 -15 11.6434
    endloop
  endfacet
  facet normal 0 -1 0
    outer loop
      vertex 3.82912 -15 9.34401
      vertex 2.64983 -15 13.3228
      vertex 2.64983 -15 10.8228
    endloop
  endfacet
  facet normal 0 -1 0
    outer loop
      vertex 3.82912 -15 9.34401
      vertex 15 -15 2.5
      vertex 2.64983 -15 13.3228
    endloop
  endfacet
  facet normal 0 -1 0
    outer loop
      vertex 4.25 -15 7.5
      vertex 15 -15 2.5
      vertex 3.82912 -15 9.34401
    endloop
  endfacet
  facet normal 0 -1 0
    outer loop
      vertex 3.82912 -15 5.65599
      vertex 15 -15 2.5
      vertex 4.25 -15 7.5
    endloop
  endfacet
  facet normal 0 -1 0
    outer loop
      vertex 2.64983 -15 4.17722
      vertex 15 -15 2.5
      vertex 3.82912 -15 5.65599
    endloop
  endfacet
  facet normal 0 -1 0
    outer loop
      vertex 15 -15 -2.5
      vertex 2.64983 -15 4.17722
      vertex 0.945713 -15 3.35656
    endloop
  endfacet
  facet normal 0 -1 -0
    outer loop
      vertex -0.945713 -15 3.35656
      vertex -15 -15 -2.5
      vertex 0.945713 -15 3.35656
    endloop
  endfacet
  facet normal 0 -1 0
    outer loop
      vertex 15 -15 -2.5
      vertex 0.945713 -15 3.35656
      vertex -15 -15 -2.5
    endloop
  endfacet
  facet normal 0 -1 0
    outer loop
      vertex 2.64983 -15 4.17722
      vertex 15 -15 -2.5
      vertex 15 -15 2.5
    endloop
  endfacet
  facet normal 0 1 -0
    outer loop
      vertex 15 15 -2.5
      vertex -15 15 2.5
      vertex 15 15 2.5
    endloop
  endfacet
  facet normal 0 1 0
    outer loop
      vertex -15 15 2.5
      vertex 15 15 -2.5
      vertex -15 15 -2.5
    endloop
  endfacet
  facet normal -0.416398 0.281029 0.864659
    outer loop
      vertex -0.945713 0 14.1434
      vertex -15 15 2.5
      vertex -2.64983 0 13.3228
    endloop
  endfacet
  facet normal 0 0 -1
    outer loop
      vertex -15 -15 -2.5
      vertex 15 15 -2.5
      vertex 15 -15 -2.5
    endloop
  endfacet
  facet normal -0 0 -1
    outer loop
      vertex 15 15 -2.5
      vertex -15 -15 -2.5
      vertex -15 15 -2.5
    endloop
  endfacet
  facet normal -0.433884 0 0.900969
    outer loop
      vertex -2.64983 0 13.3228
      vertex -0.945713 -15 14.1434
      vertex -0.945713 0 14.1434
    endloop
  endfacet
  facet normal -0.433884 0 0.900969
    outer loop
      vertex -0.945713 -15 14.1434
      vertex -2.64983 0 13.3228
      vertex -2.64983 -15 13.3228
    endloop
  endfacet
  facet normal -0.65907 0 0.752082
    outer loop
      vertex -15 -15 2.5
      vertex -2.64983 0 13.3228
      vertex -15 15 2.5
    endloop
  endfacet
  facet normal -0.65907 0 0.752082
    outer loop
      vertex -2.64983 0 13.3228
      vertex -15 -15 2.5
      vertex -2.64983 -15 13.3228
    endloop
  endfacet
  facet normal -1 0 0
    outer loop
      vertex -15 -15 -2.5
      vertex -15 15 2.5
      vertex -15 15 -2.5
    endloop
  endfacet
  facet normal -1 -0 0
    outer loop
      vertex -15 15 2.5
      vertex -15 -15 -2.5
      vertex -15 -15 2.5
    endloop
  endfacet
  facet normal 0 -1 1.16208e-06
    outer loop
      vertex -2.64983 -15 13.3228
      vertex 0.945713 -15 14.1434
      vertex -0.945713 -15 14.1434
    endloop
  endfacet
  facet normal 0 -1 1.16208e-06
    outer loop
      vertex 0.945713 -15 14.1434
      vertex -2.64983 -15 13.3228
      vertex 2.64983 -15 13.3228
    endloop
  endfacet
  facet normal 1 -0 0
    outer loop
      vertex 15 -15 2.5
      vertex 15 15 -2.5
      vertex 15 15 2.5
    endloop
  endfacet
  facet normal 1 0 0
    outer loop
      vertex 15 15 -2.5
      vertex 15 -15 2.5
      vertex 15 -15 -2.5
    endloop
  endfacet
  facet normal -0 0 1
    outer loop
      vertex -0.945713 0 14.1434
      vertex 0.945713 -15 14.1434
      vertex 0.945713 0 14.1434
    endloop
  endfacet
  facet normal 0 0 1
    outer loop
      vertex 0.945713 -15 14.1434
      vertex -0.945713 0 14.1434
      vertex -0.945713 -15 14.1434
    endloop
  endfacet
  facet normal 0.433884 0 0.900969
    outer loop
      vertex 0.945713 0 14.1434
      vertex 2.64983 -15 13.3228
      vertex 2.64983 0 13.3228
    endloop
  endfacet
  facet normal 0.433884 0 0.900969
    outer loop
      vertex 2.64983 -15 13.3228
      vertex 0.945713 0 14.1434
      vertex 0.945713 -15 14.1434
    endloop
  endfacet
  facet normal -0.974928 0 -0.222521
    outer loop
      vertex 4.25 -15 7.5
      vertex 3.82912 0 9.34401
      vertex 4.25 0 7.5
    endloop
  endfacet
  facet normal -0.974928 -0 -0.222521
    outer loop
      vertex 3.82912 0 9.34401
      vertex 4.25 -15 7.5
      vertex 3.82912 -15 9.34401
    endloop
  endfacet
  facet normal -0.781831 0 -0.62349
    outer loop
      vertex 3.82912 -15 9.34401
      vertex 2.64983 0 10.8228
      vertex 3.82912 0 9.34401
    endloop
  endfacet
  facet normal -0.781831 -0 -0.62349
    outer loop
      vertex 2.64983 0 10.8228
      vertex 3.82912 -15 9.34401
      vertex 2.64983 -15 10.8228
    endloop
  endfacet
  facet normal 0.433884 0 -0.900969
    outer loop
      vertex -2.64983 -15 10.8228
      vertex -0.945713 0 11.6434
      vertex -0.945713 -15 11.6434
    endloop
  endfacet
  facet normal 0.433884 0 -0.900969
    outer loop
      vertex -0.945713 0 11.6434
      vertex -2.64983 -15 10.8228
      vertex -2.64983 0 10.8228
    endloop
  endfacet
  facet normal 0 -1 0
    outer loop
      vertex -2.64983 0 10.8228
      vertex 0.945713 0 11.6434
      vertex -0.945713 0 11.6434
    endloop
  endfacet
  facet normal 0 -1 0
    outer loop
      vertex -2.64983 0 10.8228
      vertex 2.64983 0 10.8228
      vertex 0.945713 0 11.6434
    endloop
  endfacet
  facet normal 0 -1 0
    outer loop
      vertex -3.82912 0 9.34401
      vertex 2.64983 0 10.8228
      vertex -2.64983 0 10.8228
    endloop
  endfacet
  facet normal 0 -1 0
    outer loop
      vertex -3.82912 0 9.34401
      vertex 3.82912 0 9.34401
      vertex 2.64983 0 10.8228
    endloop
  endfacet
  facet normal 0 -1 0
    outer loop
      vertex -4.25 0 7.5
      vertex 3.82912 0 9.34401
      vertex -3.82912 0 9.34401
    endloop
  endfacet
  facet normal 0 -1 0
    outer loop
      vertex -4.25 0 7.5
      vertex 4.25 0 7.5
      vertex 3.82912 0 9.34401
    endloop
  endfacet
  facet normal 0 -1 0
    outer loop
      vertex -3.82912 0 5.65599
      vertex 4.25 0 7.5
      vertex -4.25 0 7.5
    endloop
  endfacet
  facet normal 0 -1 0
    outer loop
      vertex -3.82912 0 5.65599
      vertex 3.82912 0 5.65599
      vertex 4.25 0 7.5
    endloop
  endfacet
  facet normal 0 -1 0
    outer loop
      vertex -2.64983 0 4.17722
      vertex 3.82912 0 5.65599
      vertex -3.82912 0 5.65599
    endloop
  endfacet
  facet normal 0 -1 0
    outer loop
      vertex -2.64983 0 4.17722
      vertex 2.64983 0 4.17722
      vertex 3.82912 0 5.65599
    endloop
  endfacet
  facet normal 0 -1 0
    outer loop
      vertex -0.945713 0 3.35656
      vertex 2.64983 0 4.17722
      vertex -2.64983 0 4.17722
    endloop
  endfacet
  facet normal 0 -1 0
    outer loop
      vertex 2.64983 0 4.17722
      vertex -0.945713 0 3.35656
      vertex 0.945713 0 3.35656
    endloop
  endfacet
  facet normal -0.433884 0 0.900969
    outer loop
      vertex 0.945713 0 3.35656
      vertex 2.64983 -15 4.17722
      vertex 2.64983 0 4.17722
    endloop
  endfacet
  facet normal -0.433884 0 0.900969
    outer loop
      vertex 2.64983 -15 4.17722
      vertex 0.945713 0 3.35656
      vertex 0.945713 -15 3.35656
    endloop
  endfacet
  facet normal -0.433884 0 -0.900969
    outer loop
      vertex 0.945713 -15 11.6434
      vertex 2.64983 0 10.8228
      vertex 2.64983 -15 10.8228
    endloop
  endfacet
  facet normal -0.433884 0 -0.900969
    outer loop
      vertex 2.64983 0 10.8228
      vertex 0.945713 -15 11.6434
      vertex 0.945713 0 11.6434
    endloop
  endfacet
  facet normal 0.974928 0 -0.222521
    outer loop
      vertex -3.82912 -15 9.34401
      vertex -4.25 0 7.5
      vertex -3.82912 0 9.34401
    endloop
  endfacet
  facet normal 0.974928 0 -0.222521
    outer loop
      vertex -4.25 0 7.5
      vertex -3.82912 -15 9.34401
      vertex -4.25 -15 7.5
    endloop
  endfacet
  facet normal 0.974928 -0 0.222521
    outer loop
      vertex -4.25 -15 7.5
      vertex -3.82912 0 5.65599
      vertex -4.25 0 7.5
    endloop
  endfacet
  facet normal 0.974928 0 0.222521
    outer loop
      vertex -3.82912 0 5.65599
      vertex -4.25 -15 7.5
      vertex -3.82912 -15 5.65599
    endloop
  endfacet
  facet normal 0.781831 0 -0.62349
    outer loop
      vertex -2.64983 -15 10.8228
      vertex -3.82912 0 9.34401
      vertex -2.64983 0 10.8228
    endloop
  endfacet
  facet normal 0.781831 0 -0.62349
    outer loop
      vertex -3.82912 0 9.34401
      vertex -2.64983 -15 10.8228
      vertex -3.82912 -15 9.34401
    endloop
  endfacet
  facet normal 0.781831 -0 0.62349
    outer loop
      vertex -3.82912 -15 5.65599
      vertex -2.64983 0 4.17722
      vertex -3.82912 0 5.65599
    endloop
  endfacet
  facet normal 0.781831 0 0.62349
    outer loop
      vertex -2.64983 0 4.17722
      vertex -3.82912 -15 5.65599
      vertex -2.64983 -15 4.17722
    endloop
  endfacet
  facet normal 0 0 -1
    outer loop
      vertex -0.945713 -15 11.6434
      vertex 0.945713 0 11.6434
      vertex 0.945713 -15 11.6434
    endloop
  endfacet
  facet normal -0 0 -1
    outer loop
      vertex 0.945713 0 11.6434
      vertex -0.945713 -15 11.6434
      vertex -0.945713 0 11.6434
    endloop
  endfacet
  facet normal -0 0 1
    outer loop
      vertex -0.945713 0 3.35656
      vertex 0.945713 -15 3.35656
      vertex 0.945713 0 3.35656
    endloop
  endfacet
  facet normal 0 0 1
    outer loop
      vertex 0.945713 -15 3.35656
      vertex -0.945713 0 3.35656
      vertex -0.945713 -15 3.35656
    endloop
  endfacet
  facet normal 0.433884 0 0.900969
    outer loop
      vertex -2.64983 0 4.17722
      vertex -0.945713 -15 3.35656
      vertex -0.945713 0 3.35656
    endloop
  endfacet
  facet normal 0.433884 0 0.900969
    outer loop
      vertex -0.945713 -15 3.35656
      vertex -2.64983 0 4.17722
      vertex -2.64983 -15 4.17722
    endloop
  endfacet
  facet normal -0.781831 0 0.62349
    outer loop
      vertex 2.64983 -15 4.17722
      vertex 3.82912 0 5.65599
      vertex 2.64983 0 4.17722
    endloop
  endfacet
  facet normal -0.781831 0 0.62349
    outer loop
      vertex 3.82912 0 5.65599
      vertex 2.64983 -15 4.17722
      vertex 3.82912 -15 5.65599
    endloop
  endfacet
  facet normal -0.974928 0 0.222521
    outer loop
      vertex 3.82912 -15 5.65599
      vertex 4.25 0 7.5
      vertex 3.82912 0 5.65599
    endloop
  endfacet
  facet normal -0.974928 0 0.222521
    outer loop
      vertex 4.25 0 7.5
      vertex 3.82912 -15 5.65599
      vertex 4.25 -15 7.5
    endloop
  endfacet
endsolid OpenSCAD_Model
