solid OpenSCAD_Model
  facet normal 0.959493 0.281733 0
    outer loop
      vertex 12 0 3.75
      vertex 11.4444 1.89224 -3.75
      vertex 11.4444 1.89224 3.75
    endloop
  endfacet
  facet normal 0.959493 0.281733 0
    outer loop
      vertex 11.4444 1.89224 -3.75
      vertex 12 0 3.75
      vertex 12 0 -3.75
    endloop
  endfacet
  facet normal -1 0 0
    outer loop
      vertex -11.8582 -0.986063 -3.75
      vertex -11.8582 0.986063 3.75
      vertex -11.8582 0.986063 -3.75
    endloop
  endfacet
  facet normal -1 -0 0
    outer loop
      vertex -11.8582 0.986063 3.75
      vertex -11.8582 -0.986063 -3.75
      vertex -11.8582 -0.986063 3.75
    endloop
  endfacet
  facet normal 0 1 -0
    outer loop
      vertex 8.0019 3.46437 -3.75
      vertex -8.9981 3.46437 3.75
      vertex 8.0019 3.46437 3.75
    endloop
  endfacet
  facet normal 0 1 0
    outer loop
      vertex -8.9981 3.46437 3.75
      vertex 8.0019 3.46437 -3.75
      vertex -8.9981 3.46437 -3.75
    endloop
  endfacet
  facet normal -0.415415 0.909632 0
    outer loop
      vertex -8.9981 3.46437 -3.75
      vertex -10.792 2.64512 3.75
      vertex -8.9981 3.46437 3.75
    endloop
  endfacet
  facet normal -0.415415 0.909632 0
    outer loop
      vertex -10.792 2.64512 3.75
      vertex -8.9981 3.46437 -3.75
      vertex -10.792 2.64512 -3.75
    endloop
  endfacet
  facet normal 0 0 -1
    outer loop
      vertex 10.4 0 -3.75
      vertex 12 0 -3.75
      vertex 11.4444 -1.89224 -3.75
    endloop
  endfacet
  facet normal 0 0 -1
    outer loop
      vertex 12 0 -3.75
      vertex 10.4 0 -3.75
      vertex 11.4444 1.89224 -3.75
    endloop
  endfacet
  facet normal 0 0 -1
    outer loop
      vertex 9.45 -1.64545 -3.75
      vertex 11.4444 -1.89224 -3.75
      vertex 9.95395 -3.18371 -3.75
    endloop
  endfacet
  facet normal 0 0 -1
    outer loop
      vertex 11.4444 -1.89224 -3.75
      vertex 9.45 -1.64545 -3.75
      vertex 10.4 0 -3.75
    endloop
  endfacet
  facet normal 0 0 -1
    outer loop
      vertex 8.0019 -3.46437 -3.75
      vertex 9.45 -1.64545 -3.75
      vertex 9.95395 -3.18371 -3.75
    endloop
  endfacet
  facet normal 0 0 -1
    outer loop
      vertex 8.0019 -3.46437 -3.75
      vertex 7.55 -1.64545 -3.75
      vertex 9.45 -1.64545 -3.75
    endloop
  endfacet
  facet normal 0 0 -1
    outer loop
      vertex 8.0019 -3.46437 -3.75
      vertex 6.6 0 -3.75
      vertex 7.55 -1.64545 -3.75
    endloop
  endfacet
  facet normal 0 0 -1
    outer loop
      vertex 8.0019 -3.46437 -3.75
      vertex -6.6 0 -3.75
      vertex 6.6 0 -3.75
    endloop
  endfacet
  facet normal 0 0 -1
    outer loop
      vertex 8.0019 -3.46437 -3.75
      vertex -7.55 -1.64545 -3.75
      vertex -6.6 0 -3.75
    endloop
  endfacet
  facet normal 0 0 -1
    outer loop
      vertex -8.9981 -3.46437 -3.75
      vertex -7.55 -1.64545 -3.75
      vertex 8.0019 -3.46437 -3.75
    endloop
  endfacet
  facet normal 0 0 -1
    outer loop
      vertex -8.9981 -3.46437 -3.75
      vertex -9.45 -1.64545 -3.75
      vertex -7.55 -1.64545 -3.75
    endloop
  endfacet
  facet normal 0 0 -1
    outer loop
      vertex -10.792 -2.64512 -3.75
      vertex -9.45 -1.64545 -3.75
      vertex -8.9981 -3.46437 -3.75
    endloop
  endfacet
  facet normal 0 0 -1
    outer loop
      vertex -11.8582 -0.986063 -3.75
      vertex -9.45 -1.64545 -3.75
      vertex -10.792 -2.64512 -3.75
    endloop
  endfacet
  facet normal 0 0 -1
    outer loop
      vertex 9.45 1.64545 -3.75
      vertex 11.4444 1.89224 -3.75
      vertex 10.4 0 -3.75
    endloop
  endfacet
  facet normal -0 0 -1
    outer loop
      vertex 11.4444 1.89224 -3.75
      vertex 9.45 1.64545 -3.75
      vertex 9.95395 3.18371 -3.75
    endloop
  endfacet
  facet normal 0 0 -1
    outer loop
      vertex 9.45 1.64545 -3.75
      vertex 8.0019 3.46437 -3.75
      vertex 9.95395 3.18371 -3.75
    endloop
  endfacet
  facet normal 0 0 -1
    outer loop
      vertex 7.55 1.64545 -3.75
      vertex 8.0019 3.46437 -3.75
      vertex 9.45 1.64545 -3.75
    endloop
  endfacet
  facet normal 0 0 -1
    outer loop
      vertex 6.6 0 -3.75
      vertex 8.0019 3.46437 -3.75
      vertex 7.55 1.64545 -3.75
    endloop
  endfacet
  facet normal 0 0 -1
    outer loop
      vertex -6.6 0 -3.75
      vertex 8.0019 3.46437 -3.75
      vertex 6.6 0 -3.75
    endloop
  endfacet
  facet normal 0 0 -1
    outer loop
      vertex -7.55 1.64545 -3.75
      vertex 8.0019 3.46437 -3.75
      vertex -6.6 0 -3.75
    endloop
  endfacet
  facet normal 0 0 -1
    outer loop
      vertex -7.55 1.64545 -3.75
      vertex -8.9981 3.46437 -3.75
      vertex 8.0019 3.46437 -3.75
    endloop
  endfacet
  facet normal 0 0 -1
    outer loop
      vertex -9.45 1.64545 -3.75
      vertex -8.9981 3.46437 -3.75
      vertex -7.55 1.64545 -3.75
    endloop
  endfacet
  facet normal 0 0 -1
    outer loop
      vertex -11.8582 0.986063 -3.75
      vertex -9.45 1.64545 -3.75
      vertex -10.4 0 -3.75
    endloop
  endfacet
  facet normal 0 0 -1
    outer loop
      vertex -9.45 1.64545 -3.75
      vertex -10.792 2.64512 -3.75
      vertex -8.9981 3.46437 -3.75
    endloop
  endfacet
  facet normal 0 0 -1
    outer loop
      vertex -9.45 -1.64545 -3.75
      vertex -11.8582 -0.986063 -3.75
      vertex -10.4 0 -3.75
    endloop
  endfacet
  facet normal 0 0 -1
    outer loop
      vertex -11.8582 0.986063 -3.75
      vertex -10.4 0 -3.75
      vertex -11.8582 -0.986063 -3.75
    endloop
  endfacet
  facet normal -0 0 -1
    outer loop
      vertex -9.45 1.64545 -3.75
      vertex -11.8582 0.986063 -3.75
      vertex -10.792 2.64512 -3.75
    endloop
  endfacet
  facet normal 0.142315 0.989821 -0
    outer loop
      vertex 9.95395 3.18371 -3.75
      vertex 8.0019 3.46437 3.75
      vertex 9.95395 3.18371 3.75
    endloop
  endfacet
  facet normal 0.142315 0.989821 0
    outer loop
      vertex 8.0019 3.46437 3.75
      vertex 9.95395 3.18371 -3.75
      vertex 8.0019 3.46437 -3.75
    endloop
  endfacet
  facet normal 0.654861 0.75575 -0
    outer loop
      vertex 11.4444 1.89224 -3.75
      vertex 9.95395 3.18371 3.75
      vertex 11.4444 1.89224 3.75
    endloop
  endfacet
  facet normal 0.654861 0.75575 0
    outer loop
      vertex 9.95395 3.18371 3.75
      vertex 11.4444 1.89224 -3.75
      vertex 9.95395 3.18371 -3.75
    endloop
  endfacet
  facet normal -0.841254 0.540641 0
    outer loop
      vertex -11.8582 0.986063 -3.75
      vertex -10.792 2.64512 3.75
      vertex -10.792 2.64512 -3.75
    endloop
  endfacet
  facet normal -0.841254 0.540641 0
    outer loop
      vertex -10.792 2.64512 3.75
      vertex -11.8582 0.986063 -3.75
      vertex -11.8582 0.986063 3.75
    endloop
  endfacet
  facet normal 0 0 1
    outer loop
      vertex 10.4 0 3.75
      vertex 12 0 3.75
      vertex 11.4444 1.89224 3.75
    endloop
  endfacet
  facet normal 0 0 1
    outer loop
      vertex 12 0 3.75
      vertex 10.4 0 3.75
      vertex 11.4444 -1.89224 3.75
    endloop
  endfacet
  facet normal 0 0 1
    outer loop
      vertex 9.45 1.64545 3.75
      vertex 11.4444 1.89224 3.75
      vertex 9.95395 3.18371 3.75
    endloop
  endfacet
  facet normal 0 0 1
    outer loop
      vertex 11.4444 1.89224 3.75
      vertex 9.45 1.64545 3.75
      vertex 10.4 0 3.75
    endloop
  endfacet
  facet normal 0 0 1
    outer loop
      vertex 8.0019 3.46437 3.75
      vertex 9.45 1.64545 3.75
      vertex 9.95395 3.18371 3.75
    endloop
  endfacet
  facet normal 0 0 1
    outer loop
      vertex 8.0019 3.46437 3.75
      vertex 7.55 1.64545 3.75
      vertex 9.45 1.64545 3.75
    endloop
  endfacet
  facet normal 0 0 1
    outer loop
      vertex 8.0019 3.46437 3.75
      vertex 6.6 0 3.75
      vertex 7.55 1.64545 3.75
    endloop
  endfacet
  facet normal 0 0 1
    outer loop
      vertex 8.0019 3.46437 3.75
      vertex -6.6 0 3.75
      vertex 6.6 0 3.75
    endloop
  endfacet
  facet normal 0 0 1
    outer loop
      vertex 8.0019 3.46437 3.75
      vertex -7.55 1.64545 3.75
      vertex -6.6 0 3.75
    endloop
  endfacet
  facet normal -0 0 1
    outer loop
      vertex -8.9981 3.46437 3.75
      vertex -7.55 1.64545 3.75
      vertex 8.0019 3.46437 3.75
    endloop
  endfacet
  facet normal 0 0 1
    outer loop
      vertex -8.9981 3.46437 3.75
      vertex -9.45 1.64545 3.75
      vertex -7.55 1.64545 3.75
    endloop
  endfacet
  facet normal -0 0 1
    outer loop
      vertex -10.792 2.64512 3.75
      vertex -9.45 1.64545 3.75
      vertex -8.9981 3.46437 3.75
    endloop
  endfacet
  facet normal 0 0 1
    outer loop
      vertex -11.8582 0.986063 3.75
      vertex -9.45 1.64545 3.75
      vertex -10.792 2.64512 3.75
    endloop
  endfacet
  facet normal -0 0 1
    outer loop
      vertex 9.45 -1.64545 3.75
      vertex 11.4444 -1.89224 3.75
      vertex 10.4 0 3.75
    endloop
  endfacet
  facet normal 0 0 1
    outer loop
      vertex 11.4444 -1.89224 3.75
      vertex 9.45 -1.64545 3.75
      vertex 9.95395 -3.18371 3.75
    endloop
  endfacet
  facet normal 0 0 1
    outer loop
      vertex 9.45 -1.64545 3.75
      vertex 8.0019 -3.46437 3.75
      vertex 9.95395 -3.18371 3.75
    endloop
  endfacet
  facet normal -0 0 1
    outer loop
      vertex 7.55 -1.64545 3.75
      vertex 8.0019 -3.46437 3.75
      vertex 9.45 -1.64545 3.75
    endloop
  endfacet
  facet normal 0 0 1
    outer loop
      vertex 6.6 0 3.75
      vertex 8.0019 -3.46437 3.75
      vertex 7.55 -1.64545 3.75
    endloop
  endfacet
  facet normal -0 0 1
    outer loop
      vertex -6.6 0 3.75
      vertex 8.0019 -3.46437 3.75
      vertex 6.6 0 3.75
    endloop
  endfacet
  facet normal -0 0 1
    outer loop
      vertex -7.55 -1.64545 3.75
      vertex 8.0019 -3.46437 3.75
      vertex -6.6 0 3.75
    endloop
  endfacet
  facet normal 0 0 1
    outer loop
      vertex -7.55 -1.64545 3.75
      vertex -8.9981 -3.46437 3.75
      vertex 8.0019 -3.46437 3.75
    endloop
  endfacet
  facet normal -0 0 1
    outer loop
      vertex -9.45 -1.64545 3.75
      vertex -8.9981 -3.46437 3.75
      vertex -7.55 -1.64545 3.75
    endloop
  endfacet
  facet normal -0 0 1
    outer loop
      vertex -11.8582 -0.986063 3.75
      vertex -9.45 -1.64545 3.75
      vertex -10.4 0 3.75
    endloop
  endfacet
  facet normal 0 0 1
    outer loop
      vertex -9.45 -1.64545 3.75
      vertex -10.792 -2.64512 3.75
      vertex -8.9981 -3.46437 3.75
    endloop
  endfacet
  facet normal 0 0 1
    outer loop
      vertex -9.45 1.64545 3.75
      vertex -11.8582 0.986063 3.75
      vertex -10.4 0 3.75
    endloop
  endfacet
  facet normal 0 0 1
    outer loop
      vertex -11.8582 -0.986063 3.75
      vertex -10.4 0 3.75
      vertex -11.8582 0.986063 3.75
    endloop
  endfacet
  facet normal 0 0 1
    outer loop
      vertex -9.45 -1.64545 3.75
      vertex -11.8582 -0.986063 3.75
      vertex -10.792 -2.64512 3.75
    endloop
  endfacet
  facet normal 0.959493 -0.281733 0
    outer loop
      vertex 11.4444 -1.89224 3.75
      vertex 12 0 -3.75
      vertex 12 0 3.75
    endloop
  endfacet
  facet normal 0.959493 -0.281733 0
    outer loop
      vertex 12 0 -3.75
      vertex 11.4444 -1.89224 3.75
      vertex 11.4444 -1.89224 -3.75
    endloop
  endfacet
  facet normal 0 -1 0
    outer loop
      vertex -8.9981 -3.46437 -3.75
      vertex 8.0019 -3.46437 3.75
      vertex -8.9981 -3.46437 3.75
    endloop
  endfacet
  facet normal 0 -1 -0
    outer loop
      vertex 8.0019 -3.46437 3.75
      vertex -8.9981 -3.46437 -3.75
      vertex 8.0019 -3.46437 -3.75
    endloop
  endfacet
  facet normal -0.841254 -0.540641 0
    outer loop
      vertex -10.792 -2.64512 -3.75
      vertex -11.8582 -0.986063 3.75
      vertex -11.8582 -0.986063 -3.75
    endloop
  endfacet
  facet normal -0.841254 -0.540641 0
    outer loop
      vertex -11.8582 -0.986063 3.75
      vertex -10.792 -2.64512 -3.75
      vertex -10.792 -2.64512 3.75
    endloop
  endfacet
  facet normal 0.654861 -0.75575 0
    outer loop
      vertex 9.95395 -3.18371 -3.75
      vertex 11.4444 -1.89224 3.75
      vertex 9.95395 -3.18371 3.75
    endloop
  endfacet
  facet normal 0.654861 -0.75575 0
    outer loop
      vertex 11.4444 -1.89224 3.75
      vertex 9.95395 -3.18371 -3.75
      vertex 11.4444 -1.89224 -3.75
    endloop
  endfacet
  facet normal 0.142315 -0.989821 0
    outer loop
      vertex 8.0019 -3.46437 -3.75
      vertex 9.95395 -3.18371 3.75
      vertex 8.0019 -3.46437 3.75
    endloop
  endfacet
  facet normal 0.142315 -0.989821 0
    outer loop
      vertex 9.95395 -3.18371 3.75
      vertex 8.0019 -3.46437 -3.75
      vertex 9.95395 -3.18371 -3.75
    endloop
  endfacet
  facet normal -0.415415 -0.909632 0
    outer loop
      vertex -10.792 -2.64512 -3.75
      vertex -8.9981 -3.46437 3.75
      vertex -10.792 -2.64512 3.75
    endloop
  endfacet
  facet normal -0.415415 -0.909632 -0
    outer loop
      vertex -8.9981 -3.46437 3.75
      vertex -10.792 -2.64512 -3.75
      vertex -8.9981 -3.46437 -3.75
    endloop
  endfacet
  facet normal -0.866025 -0.5 0
    outer loop
      vertex 10.4 0 -3.75
      vertex 9.45 1.64545 3.75
      vertex 9.45 1.64545 -3.75
    endloop
  endfacet
  facet normal -0.866025 -0.5 0
    outer loop
      vertex 9.45 1.64545 3.75
      vertex 10.4 0 -3.75
      vertex 10.4 0 3.75
    endloop
  endfacet
  facet normal 0.866025 -0.5 0
    outer loop
      vertex 6.6 0 3.75
      vertex 7.55 1.64545 -3.75
      vertex 7.55 1.64545 3.75
    endloop
  endfacet
  facet normal 0.866025 -0.5 0
    outer loop
      vertex 7.55 1.64545 -3.75
      vertex 6.6 0 3.75
      vertex 6.6 0 -3.75
    endloop
  endfacet
  facet normal 0 -1 0
    outer loop
      vertex 7.55 1.64545 -3.75
      vertex 9.45 1.64545 3.75
      vertex 7.55 1.64545 3.75
    endloop
  endfacet
  facet normal 0 -1 -0
    outer loop
      vertex 9.45 1.64545 3.75
      vertex 7.55 1.64545 -3.75
      vertex 9.45 1.64545 -3.75
    endloop
  endfacet
  facet normal 0.866025 0.5 0
    outer loop
      vertex 7.55 -1.64545 3.75
      vertex 6.6 0 -3.75
      vertex 6.6 0 3.75
    endloop
  endfacet
  facet normal 0.866025 0.5 0
    outer loop
      vertex 6.6 0 -3.75
      vertex 7.55 -1.64545 3.75
      vertex 7.55 -1.64545 -3.75
    endloop
  endfacet
  facet normal -0.866025 0.5 0
    outer loop
      vertex 9.45 -1.64545 -3.75
      vertex 10.4 0 3.75
      vertex 10.4 0 -3.75
    endloop
  endfacet
  facet normal -0.866025 0.5 0
    outer loop
      vertex 10.4 0 3.75
      vertex 9.45 -1.64545 -3.75
      vertex 9.45 -1.64545 3.75
    endloop
  endfacet
  facet normal 0 1 -0
    outer loop
      vertex 9.45 -1.64545 -3.75
      vertex 7.55 -1.64545 3.75
      vertex 9.45 -1.64545 3.75
    endloop
  endfacet
  facet normal 0 1 0
    outer loop
      vertex 7.55 -1.64545 3.75
      vertex 9.45 -1.64545 -3.75
      vertex 7.55 -1.64545 -3.75
    endloop
  endfacet
  facet normal -0.866025 -0.5 0
    outer loop
      vertex -6.6 0 -3.75
      vertex -7.55 1.64545 3.75
      vertex -7.55 1.64545 -3.75
    endloop
  endfacet
  facet normal -0.866025 -0.5 0
    outer loop
      vertex -7.55 1.64545 3.75
      vertex -6.6 0 -3.75
      vertex -6.6 0 3.75
    endloop
  endfacet
  facet normal 0.866025 -0.5 0
    outer loop
      vertex -10.4 0 3.75
      vertex -9.45 1.64545 -3.75
      vertex -9.45 1.64545 3.75
    endloop
  endfacet
  facet normal 0.866025 -0.5 0
    outer loop
      vertex -9.45 1.64545 -3.75
      vertex -10.4 0 3.75
      vertex -10.4 0 -3.75
    endloop
  endfacet
  facet normal 0 -1 0
    outer loop
      vertex -9.45 1.64545 -3.75
      vertex -7.55 1.64545 3.75
      vertex -9.45 1.64545 3.75
    endloop
  endfacet
  facet normal 0 -1 -0
    outer loop
      vertex -7.55 1.64545 3.75
      vertex -9.45 1.64545 -3.75
      vertex -7.55 1.64545 -3.75
    endloop
  endfacet
  facet normal 0.866025 0.5 0
    outer loop
      vertex -9.45 -1.64545 3.75
      vertex -10.4 0 -3.75
      vertex -10.4 0 3.75
    endloop
  endfacet
  facet normal 0.866025 0.5 0
    outer loop
      vertex -10.4 0 -3.75
      vertex -9.45 -1.64545 3.75
      vertex -9.45 -1.64545 -3.75
    endloop
  endfacet
  facet normal 0 1 -0
    outer loop
      vertex -7.55 -1.64545 -3.75
      vertex -9.45 -1.64545 3.75
      vertex -7.55 -1.64545 3.75
    endloop
  endfacet
  facet normal 0 1 0
    outer loop
      vertex -9.45 -1.64545 3.75
      vertex -7.55 -1.64545 -3.75
      vertex -9.45 -1.64545 -3.75
    endloop
  endfacet
  facet normal -0.866025 0.5 0
    outer loop
      vertex -7.55 -1.64545 -3.75
      vertex -6.6 0 3.75
      vertex -6.6 0 -3.75
    endloop
  endfacet
  facet normal -0.866025 0.5 0
    outer loop
      vertex -6.6 0 3.75
      vertex -7.55 -1.64545 -3.75
      vertex -7.55 -1.64545 3.75
    endloop
  endfacet
endsolid OpenSCAD_Model
